<mxfile host="app.diagrams.net" modified="2023-04-17T04:11:08.370Z" agent="Mozilla/5.0 (Macintosh; Intel Mac OS X 10_15_7) AppleWebKit/537.36 (KHTML, like Gecko) Chrome/112.0.0.0 Safari/537.36" etag="PfopNpmCEPEBEeCVbADL" version="21.1.8" type="google">
  <diagram id="MAFGO38BevYGu16X6V7a" name="Page-1">
    <mxGraphModel grid="1" page="1" gridSize="10" guides="1" tooltips="1" connect="1" arrows="1" fold="1" pageScale="1" pageWidth="850" pageHeight="1100" math="0" shadow="0">
      <root>
        <mxCell id="0" />
        <mxCell id="1" parent="0" />
        <mxCell id="JbEN0UMO3swwpD4w212Q-1" value="" style="rounded=0;whiteSpace=wrap;html=1;" vertex="1" parent="1">
          <mxGeometry x="-240" y="240" width="720" height="320" as="geometry" />
        </mxCell>
        <mxCell id="JbEN0UMO3swwpD4w212Q-2" value="" style="points=[[0,0,0],[0.25,0,0],[0.5,0,0],[0.75,0,0],[1,0,0],[0,1,0],[0.25,1,0],[0.5,1,0],[0.75,1,0],[1,1,0],[0,0.25,0],[0,0.5,0],[0,0.75,0],[1,0.25,0],[1,0.5,0],[1,0.75,0]];outlineConnect=0;fontColor=#232F3E;gradientColor=#F78E04;gradientDirection=north;fillColor=#D05C17;strokeColor=#ffffff;dashed=0;verticalLabelPosition=bottom;verticalAlign=top;align=center;html=1;fontSize=12;fontStyle=0;aspect=fixed;shape=mxgraph.aws4.resourceIcon;resIcon=mxgraph.aws4.eks;" vertex="1" parent="1">
          <mxGeometry x="-230" y="240" width="50" height="50" as="geometry" />
        </mxCell>
        <mxCell id="JbEN0UMO3swwpD4w212Q-24" value="Retrieve synced&lt;br&gt;certificates" style="edgeStyle=orthogonalEdgeStyle;rounded=0;orthogonalLoop=1;jettySize=auto;html=1;entryX=0.5;entryY=1;entryDx=0;entryDy=0;" edge="1" parent="1" source="JbEN0UMO3swwpD4w212Q-3" target="JbEN0UMO3swwpD4w212Q-22">
          <mxGeometry relative="1" as="geometry" />
        </mxCell>
        <mxCell id="JbEN0UMO3swwpD4w212Q-3" value="" style="html=1;dashed=0;whitespace=wrap;fillColor=#2875E2;strokeColor=#ffffff;points=[[0.005,0.63,0],[0.1,0.2,0],[0.9,0.2,0],[0.5,0,0],[0.995,0.63,0],[0.72,0.99,0],[0.5,1,0],[0.28,0.99,0]];shape=mxgraph.kubernetes.icon;prIcon=secret" vertex="1" parent="1">
          <mxGeometry x="200" y="450" width="50" height="48" as="geometry" />
        </mxCell>
        <mxCell id="JbEN0UMO3swwpD4w212Q-10" style="edgeStyle=orthogonalEdgeStyle;rounded=0;orthogonalLoop=1;jettySize=auto;html=1;" edge="1" parent="1" target="JbEN0UMO3swwpD4w212Q-9">
          <mxGeometry relative="1" as="geometry">
            <mxPoint x="412.7399999999998" y="474" as="sourcePoint" />
          </mxGeometry>
        </mxCell>
        <mxCell id="JbEN0UMO3swwpD4w212Q-13" value="Create DNS01&lt;br&gt;Challenge" style="edgeLabel;html=1;align=center;verticalAlign=middle;resizable=0;points=[];" vertex="1" connectable="0" parent="JbEN0UMO3swwpD4w212Q-10">
          <mxGeometry x="0.3549" y="2" relative="1" as="geometry">
            <mxPoint as="offset" />
          </mxGeometry>
        </mxCell>
        <mxCell id="JbEN0UMO3swwpD4w212Q-15" style="edgeStyle=orthogonalEdgeStyle;rounded=0;orthogonalLoop=1;jettySize=auto;html=1;" edge="1" parent="1" target="JbEN0UMO3swwpD4w212Q-6">
          <mxGeometry relative="1" as="geometry">
            <mxPoint x="371.4000000000001" y="514" as="sourcePoint" />
          </mxGeometry>
        </mxCell>
        <mxCell id="JbEN0UMO3swwpD4w212Q-16" value="Provision&lt;br&gt;Certificate" style="edgeLabel;html=1;align=center;verticalAlign=middle;resizable=0;points=[];" vertex="1" connectable="0" parent="JbEN0UMO3swwpD4w212Q-15">
          <mxGeometry x="-0.1818" y="1" relative="1" as="geometry">
            <mxPoint as="offset" />
          </mxGeometry>
        </mxCell>
        <mxCell id="JbEN0UMO3swwpD4w212Q-17" style="edgeStyle=orthogonalEdgeStyle;rounded=0;orthogonalLoop=1;jettySize=auto;html=1;entryX=0.8;entryY=0.5;entryDx=0;entryDy=0;entryPerimeter=0;" edge="1" parent="1" target="JbEN0UMO3swwpD4w212Q-3">
          <mxGeometry relative="1" as="geometry">
            <mxPoint x="329.8699999999999" y="474" as="sourcePoint" />
          </mxGeometry>
        </mxCell>
        <mxCell id="JbEN0UMO3swwpD4w212Q-18" value="Store cert&lt;br&gt;as secret" style="edgeLabel;html=1;align=center;verticalAlign=middle;resizable=0;points=[];" vertex="1" connectable="0" parent="JbEN0UMO3swwpD4w212Q-17">
          <mxGeometry x="-0.1795" relative="1" as="geometry">
            <mxPoint as="offset" />
          </mxGeometry>
        </mxCell>
        <mxCell id="JbEN0UMO3swwpD4w212Q-12" style="edgeStyle=orthogonalEdgeStyle;rounded=0;orthogonalLoop=1;jettySize=auto;html=1;" edge="1" parent="1" source="JbEN0UMO3swwpD4w212Q-6" target="JbEN0UMO3swwpD4w212Q-9">
          <mxGeometry relative="1" as="geometry" />
        </mxCell>
        <mxCell id="JbEN0UMO3swwpD4w212Q-14" value="Validate DNS01 &lt;br&gt;Challenge" style="edgeLabel;html=1;align=center;verticalAlign=middle;resizable=0;points=[];" vertex="1" connectable="0" parent="JbEN0UMO3swwpD4w212Q-12">
          <mxGeometry x="-0.1698" relative="1" as="geometry">
            <mxPoint x="1" y="1" as="offset" />
          </mxGeometry>
        </mxCell>
        <mxCell id="JbEN0UMO3swwpD4w212Q-6" value="PKI API&lt;br&gt;Default: LE" style="shape=mxgraph.cisco.misc.cisco_ca;html=1;pointerEvents=1;dashed=0;fillColor=#036897;strokeColor=#ffffff;strokeWidth=2;verticalLabelPosition=bottom;verticalAlign=top;align=center;outlineConnect=0;" vertex="1" parent="1">
          <mxGeometry x="329.87" y="690" width="83" height="67" as="geometry" />
        </mxCell>
        <mxCell id="JbEN0UMO3swwpD4w212Q-9" value="Route53" style="outlineConnect=0;dashed=0;verticalLabelPosition=bottom;verticalAlign=top;align=center;html=1;shape=mxgraph.aws3.route_53;fillColor=#F58536;gradientColor=none;" vertex="1" parent="1">
          <mxGeometry x="570" y="680.75" width="70.5" height="85.5" as="geometry" />
        </mxCell>
        <mxCell id="JbEN0UMO3swwpD4w212Q-11" value="" style="outlineConnect=0;dashed=0;verticalLabelPosition=bottom;verticalAlign=top;align=center;html=1;shape=mxgraph.aws3.iam;fillColor=#759C3E;gradientColor=none;" vertex="1" parent="1">
          <mxGeometry x="510" y="445.5" width="30" height="57" as="geometry" />
        </mxCell>
        <mxCell id="JbEN0UMO3swwpD4w212Q-19" value="AWS &lt;br&gt;Certificate Manager" style="outlineConnect=0;dashed=0;verticalLabelPosition=bottom;verticalAlign=top;align=center;html=1;shape=mxgraph.aws3.certificate_manager;fillColor=#759C3E;gradientColor=none;" vertex="1" parent="1">
          <mxGeometry x="91" y="56.13" width="76.5" height="61.5" as="geometry" />
        </mxCell>
        <mxCell id="JbEN0UMO3swwpD4w212Q-20" value="Imperva&#xa;Incapsula" style="shape=image;verticalLabelPosition=bottom;labelBackgroundColor=#ffffff;verticalAlign=top;aspect=fixed;imageAspect=0;image=https://img.stackshare.io/service/16/pmMygGUP.jpg;" vertex="1" parent="1">
          <mxGeometry x="310" y="56.13" width="69.25" height="69.25" as="geometry" />
        </mxCell>
        <mxCell id="JbEN0UMO3swwpD4w212Q-23" value="" style="group" vertex="1" connectable="0" parent="1">
          <mxGeometry x="167.5" y="310" width="115" height="68" as="geometry" />
        </mxCell>
        <mxCell id="Ln8kPvlx6nNb-7jzCwNh-3" style="edgeStyle=orthogonalEdgeStyle;rounded=0;orthogonalLoop=1;jettySize=auto;html=1;exitX=0.005;exitY=0.63;exitDx=0;exitDy=0;exitPerimeter=0;" edge="1" parent="JbEN0UMO3swwpD4w212Q-23" source="JbEN0UMO3swwpD4w212Q-21">
          <mxGeometry relative="1" as="geometry">
            <mxPoint x="-157.5" y="-150" as="targetPoint" />
          </mxGeometry>
        </mxCell>
        <mxCell id="Ln8kPvlx6nNb-7jzCwNh-7" style="edgeStyle=orthogonalEdgeStyle;rounded=0;orthogonalLoop=1;jettySize=auto;html=1;exitX=0.005;exitY=0.63;exitDx=0;exitDy=0;exitPerimeter=0;" edge="1" parent="JbEN0UMO3swwpD4w212Q-23" source="JbEN0UMO3swwpD4w212Q-21">
          <mxGeometry relative="1" as="geometry">
            <mxPoint x="-287.5" y="-130" as="targetPoint" />
          </mxGeometry>
        </mxCell>
        <mxCell id="JbEN0UMO3swwpD4w212Q-21" value="" style="html=1;dashed=0;whitespace=wrap;fillColor=#2875E2;strokeColor=#ffffff;points=[[0.005,0.63,0],[0.1,0.2,0],[0.9,0.2,0],[0.5,0,0],[0.995,0.63,0],[0.72,0.99,0],[0.5,1,0],[0.28,0.99,0]];shape=mxgraph.kubernetes.icon;prIcon=pod" vertex="1" parent="JbEN0UMO3swwpD4w212Q-23">
          <mxGeometry x="32.5" width="50" height="48" as="geometry" />
        </mxCell>
        <mxCell id="JbEN0UMO3swwpD4w212Q-22" value="cert-manager-sync" style="text;html=1;strokeColor=none;fillColor=none;align=center;verticalAlign=middle;whiteSpace=wrap;rounded=0;" vertex="1" parent="JbEN0UMO3swwpD4w212Q-23">
          <mxGeometry y="48" width="115" height="20" as="geometry" />
        </mxCell>
        <mxCell id="JbEN0UMO3swwpD4w212Q-25" style="edgeStyle=orthogonalEdgeStyle;rounded=0;orthogonalLoop=1;jettySize=auto;html=1;" edge="1" parent="1" source="JbEN0UMO3swwpD4w212Q-21">
          <mxGeometry relative="1" as="geometry">
            <mxPoint x="130" y="160" as="targetPoint" />
          </mxGeometry>
        </mxCell>
        <mxCell id="JbEN0UMO3swwpD4w212Q-26" style="edgeStyle=orthogonalEdgeStyle;rounded=0;orthogonalLoop=1;jettySize=auto;html=1;startArrow=none;" edge="1" parent="1" source="JbEN0UMO3swwpD4w212Q-30">
          <mxGeometry relative="1" as="geometry">
            <mxPoint x="340" y="160" as="targetPoint" />
            <mxPoint x="250" y="334" as="sourcePoint" />
            <Array as="points">
              <mxPoint x="340" y="210" />
              <mxPoint x="340" y="210" />
            </Array>
          </mxGeometry>
        </mxCell>
        <mxCell id="JbEN0UMO3swwpD4w212Q-29" value="" style="outlineConnect=0;dashed=0;verticalLabelPosition=bottom;verticalAlign=top;align=center;html=1;shape=mxgraph.aws3.iam;fillColor=#759C3E;gradientColor=none;" vertex="1" parent="1">
          <mxGeometry x="114.25" y="250" width="30" height="50" as="geometry" />
        </mxCell>
        <mxCell id="4Pfv7Ixq8JbsdDbuthkN-1" style="edgeStyle=orthogonalEdgeStyle;rounded=0;orthogonalLoop=1;jettySize=auto;html=1;exitX=0.995;exitY=0.63;exitDx=0;exitDy=0;exitPerimeter=0;" edge="1" parent="1" source="JbEN0UMO3swwpD4w212Q-21">
          <mxGeometry relative="1" as="geometry">
            <mxPoint x="440.5" y="160" as="targetPoint" />
            <mxPoint x="383" y="334" as="sourcePoint" />
          </mxGeometry>
        </mxCell>
        <mxCell id="4Pfv7Ixq8JbsdDbuthkN-3" value="" style="html=1;dashed=0;whitespace=wrap;fillColor=#2875E2;strokeColor=#ffffff;points=[[0.005,0.63,0],[0.1,0.2,0],[0.9,0.2,0],[0.5,0,0],[0.995,0.63,0],[0.72,0.99,0],[0.5,1,0],[0.28,0.99,0]];shape=mxgraph.kubernetes.icon;prIcon=secret" vertex="1" parent="1">
          <mxGeometry x="416.13" y="252" width="50" height="48" as="geometry" />
        </mxCell>
        <mxCell id="4Pfv7Ixq8JbsdDbuthkN-4" value="ThreatX&#xa;Site" style="shape=image;verticalLabelPosition=bottom;labelBackgroundColor=#ffffff;verticalAlign=top;aspect=fixed;imageAspect=0;image=data:image/png,iVBORw0KGgoAAAANSUhEUgAAANAAAADyCAMAAAALHrt7AAAAmVBMVEX////SMgDRJgDRLQDQHgDRLgDPGADQIgDQGwDPEgD44t3//fz66ub88e7++ff99vTvwLfiiXn12NLyzcbZWkD22tT339r56OTtuK7yysLopJfkkYPwxLzmm43pqZ7ed2TcaVPXTjDklIXUPRXss6jWSSnaXkXgfmzYVTnfemfdb1rbZk/TOArVQyDhhHTjjHzVQyXVSS7cb19HPuHSAAASYklEQVR4nO1d53arvBINEqK4x3bi3mtc4pz7/g93ARdmVEBgir3Wt3/FXg5okGZmT5H4+CgEVR/F3CoHNOq1705rPbzsDvPtYmUYBqWEEMoM43TeH+eHn8/huj9o1+qNsocajV67P13Oun+GbVmOadueDJSyAIaP65/Ul862TcdybeOvO1tOW1+1sofOod7uj+aG43hSEF8EQxe+eMQ2Lccx5qN+u162IJ4onfXv0XAdM1hQT4BRYjouO176X82SZGl8rX82pmM/KwovlmX/m03bBUvV6182tuXJkpkoEN4qdMzz77pSjDCV9Y/hmiS7aZGDEdsls/V3vsa+1t+tChDmIRS1XWPW7+UjTLUzOjvFCRMKZTqryzhrj1Vbz12ncGEeQhHHPU6zm6ivycK189F/fXirb7FsZyHNcmWlmZqAExCfE9imByeA/5fPIJK538clibUafT0lTWViJJTGl8JjNd7yXC2Os9/RZDJcr/ut8aDT7nQG43GrPx1ORr/z/flEPYZk2iSRH/NkYsu0MtWGCzeBNFcOc+rOJuvBd60eb24b9V67tZ78HM+2m8A/M+JupilI0nju2Hq3CNy7S7q/w/F3M5XbaPQG68vBcC1NBsVscz5OdIfekjg6ViBgYLS7zIZXNr5ak7nhs6l4qahDRrpmr9ra6iw1TxbX2E7GWbu9Wmc6+/OUMO6BekvvONZYELURi58cajtu99Lq5cZL6uPl1op1fNQxJjGhVPsQa9U8L+fsJ538A+rmYHT2tSpyMLYz+1ZforVxYybH4yGb0aC4yLk+vvxZ0XyLuNuB9H8b05UTOTmeDyCHfvHRcq0/o5Hrhlp/fVGcCTGjxPGYx2lZwDpToHPxZFKvHmaepuj3zYkV5XQ8G7DIkBumw/fkHDFIZpLhQxO82bHV0jDb3ZcuzRXfk39qh8JsOrrahyGJEJy4p8lrSHNFFLv0lHzhKVNVzTaoSX6zYOzZovNLTZU6UeoJdJILxGzr2HrN1KbHZVTTtFIJRK3T8NXymRAVBdtUCESso9xZvRJae4toCcRs8llQSuxJfO1s3p6JAjHHGJaVjE2O+oRhPuALtALfMGvTKnuQCdE/W2qB2KlT9vhSYIAF+oACbcoeXCoACc74I/sre2xpUDXUAp3LHlwaNCgW4AwEWr1jZbcZUutAZ/7eXiAnFGDhfd5AK/eWArmhAHvv8z+wBI3XZKPRqAGBut7nBRCIvaNAldCzsq33eQGYAnkf1hPiKxSIHr3Pe/rmAnVCo0AP3ucuEMh8gd6HxBgAgWbe5y0QyHlHgcZmKNDO+zwHArnvKFArFIh8ep8PUKBXDrtVWIdMgYy8zzMQyFrvEapiDDmBfqFAr5e1iscyFIBMvM8jIJDzjgHeJxBo6H2eQIFeP9kjYhcKYPs5e7AEDfPdMgo+/hdaNXv9wQkkFlpeH4AZBBMyfXeBQIRq+irTD/3SdQ2+G0CXTWDUWlCgSdmjSwGQl3N8twPIqkEuZY8uOaphfGdYfskLhBMG2ZU9vOQAAavh+sW5byBQQL/zRDV7sggnJCDXFbDkggApVxzPu34l01QMVBnXv3INCrTN8lYyVFxiWsZ82M5MKBAOGcS/agN8UUBy2yf3zG8WWozGmURfIHpgp+AbKJCRxS0iUbnrMCOmu/lsPS3UBAi0CL6B9Vfz6QHH4gDIsCeUuU/TnwgAooUg6YOy9Yabf2KuB8xsMArbOvaf0KhZSOVuNm1fcAw+E2q91LRHqW8Mhk9+gm9gUsF6ro1YCxWLF8gfi7NLGf6DBRZE4CjiKyZkFacoGI01S9WEAy5249YgJjfMZN226VBxRXECkdxZcvtQF6MfGOEFIV/uOEinyBfJHCa9FiQ6t+lYFx4/8IYOwDwnTDy1gUbeklaD4uMHuRYFYG6yIcBw7maj20XS7Sukhu6xSs5JTC3MINhXFYQLgO7zkYDHIar9mFoJNAlk4e4FyAYQqAAyF6ATNUWe95hrMxZAFB5tFrDj1MlJAh5/UT3Ini6fdN0sSGLR7u07kAcyrIIKKtOIvt3gaTuaHhE8mUd4eoTcp6D6QxNZblkbr6ulSE1gL8ny9uUP5D5F1R9AnY3tWydgfB8SfWpcBqZIHllFWH8oLHcK85uuvwRF1+Ro+BCYUXhk5pEpT8w9UqIOHq1PiZs/4k4Scx57GehXH6EC/PLGwAsAiGOuT7G9EgyFfYy7CiSizp2tw2mj8zyFgAAk/8ZPqjuB49lxw9lBdbnHvVCx2L88hYAA64Kt7t9Z/LIzY/ToCDuV7l9C08cMvfC+5RyW/aeOPejBFPT9QrU/ftk50VwVdDOCpCL0rLamZ3WD3Z6n+ed6UEuVWWmATRdmGKvOeFIUSewgbSOhme+m8KxXesn80xwstv9dfyVO3AAfD1MZE16R3Ig6KUzMg1huliIIh6bRF8tKvNUQPEbEc1ouxxtctbMfgFGAAvEEOiLNIh5ojLyBEss8JNjQcqCysXjocLvnGFHmuKDVBk0WMAgnOoTDx1wW0lCHXnRzN4BxcfykzXE7qky5w64RNzRR7TSOaC2hX8HjdOd6fBBEMjzh+uJWna0q84DuRUbDr3tAIO0CRF0ukP9M3L1OED1XLbkP/xFjiVSmDowBloIakBiauprdVYfR1N3FuyjAfcT8Jh/SyruQaqpyKsrX60ZEkTEaIbG0HdzUEvc/t7D1lndgQ11BtBrmLEzdfp9eZF6AuTEFaLhkZd58iiUiMjVCTSPQ9MNssH4AcY7OC9iLSNIB0oFQn0NcsJK6kim/QCMHrSuMtsivrkAjdbowACURO+kR215If3HE17dFbwTUkFHoAVGuUTs11xF8KwcW1VC4EcogPLjddGJFG260wcOG4aNh6QqEEnrSk3+YOkXxDf5ZRbe4BKvFVxJgAf9W7LoDGixXu0wTzjjbrLeuJHfDTJXNhFUpZTPyGhsGvgsbZuU5ygYzWfpFL9gc6U3z9CRulmVUPtimXv75B7kGwkXkKP7Go76kMnPAllwT/+OFcMiEYrRLvcRMFVtSCzMK5G2wyUBmTruDCbTZ3B9Qn/Cmz5SxXcSbrIiC8TdadNz2Gbg5jeH/g2ZOfyceCCEebKzxIwRoEk8Nc5vRDUYT5I1sGJBDU8abwCa0J9p7VMAeWLBsxtzpAMwWrjdGVjVaZxfoapCYoU4/vvS4gQl77YJTaOagK6mcsEQCa6nD5pU4v/eNbPejwvDBtf/ylh/ql37lOIwAUFzY3GBFsrhFBzfEGFZczL9Elg78HO3a4H0NpHn65CdUBVzLrJ7RHHFltE+oFgraA4EIw63jygcUlPD/BH2UPvkJrT2n2XV8MAiq1k/RGnLj1/fAlV4LlVIFwwJZhCFqsQIhweStzBfmeVZobpFB0PMRqK+B3W1WTDszjPG0N6kAgfi0+hrNQ6hiHexYtBK1ONq3b3UtSAYk7AZZBd1+9E+FDgUXRIbhvruvjfmmzEdJMEQS3agfNMyOuKagDSS63Qph7l80JE3EVW8dHVyCytbNma3QtYJ7wSYfmdbD8JznEUoozPYVfTQZAVPu4PSUOt/GY4yuZfk2GrlVyYOBwY12BLEPmYKkSQilhfwfjLnEh4KJS+8ErxXEPpO4bUKQ12pWWkHEKPsPpC+McFMWmbMWr4WehV9RQNtVZfQWGg1N11oX2TYCaoChRy4zGVVViLmWN0UNMEFyOo3KCSfZLwSAHnBpNg9zfy740+tDeACH424tToW4vIJ0DgWAxiFb+oOjOrlqLaX/oQZqSSO7ISwByec6uRKFWg9JMEBb2enn6BrsB3DXIIXNQoqcBCxNaDESMKcqpdsrpsjR5r8hdshTw+OVVvJ/QEqk+A0CiNtV2yv78tSdlXh+PnCxHoEoVi/ipzqlVlhTVHiUqvQYajep/lyxU2RqlWmqTTI6B7qV1d0NS8kgEtq38IaK6oCtIrgw9yew58ifq5uJJT3abupWanljpzrJMkZrLq76Czl9xALd8GsumT9FkBtNU/mAGlCg2I5CwCyiztTiymJMM2CQYyubogifCX8fZ7hhuUv9jDh/bbCYnFUMOpIpikoYoKcp9/0PoO6TqOUJy/9PysMn6a7jjDAxSIOj43DInKOpLGpdfHbzS0v0a5L6bAgYGEa2AvaQukUSv9B4sKfl4ULX4KKRFAAWGSN/Cac+LtZ4LE4+35gGU747QsgBI6CQLGLN7aCyRRUPfNyzFU/ZtzsafC+BG7XiUNEyYqcKqrjH7tC5Ovgs1puPJU6zxJVKIONWRnkoNaCxW8JP5bIs1puPpotqYHHVOVTYVthY3LWisZB8F5zJegtQh6HdNQEUBZiTlvtWnIriis9SdKys1lsAaOgUgSUAXHPXze/86JA8jOmkwZ1n/SkaAFwgURzlCmTnJIF4y0I6qffkD1keF4Qotxn/PI3ICeU6XB29PYhZ7sdG3FDn/IcJcjFcWPCDQyxlo2GOwOPTWCCIz+FovbbAXo0UtGEPAh2xL+/i4gFpNCrfDLjqNj2VcOYmpLqau27RvzihWbhwja1JUu3ZAQXAevvrUAPqwyz09hwrZHYZh+shm61bxkLZohv3m/JtScyMJIV5ATcEaHq3L2QWfENW6/JxFSWlvK8DZUk0GgJuQHGuW/PINR/4klU57x9ByX/97YIof0t/tkLYSxblnFiLyjNM6LVQA+VvqZCXcOa5DTkaiPUk2f44jNwGnDIz/Ty+EE/R7g75wHvYeFCntHMckQYl2855UUpkn0s7rBYngvVqjHfUFXl+prWdOScg46vfMXbFr3SKCCniUBkFWlzVONl/y6plzJ2Xeb446ppLflShOEUaG2jyxETWv5QA/F4a5h5KPf69pm4O1gQuaFKj5FOE5T2ASYBKyPo8MCcoujQTAfmikg/irqr6aJOggXqpdPoW8sMn7nROyVVQX6RdFoHzgTlC6vWPShHRhbKcgXd6RRdQooB8s347Zeb4xZuIUrQJ3YEieLOsk565xuhnXoeC20CSdFRmiCZu0ree4ivIutBVKS/zmWMP/1y2tkGT1oIyx5TrXH8yG4j7pdO3HaUG1/yUjiNA4Ib/Z59PYjTw3qoMzvPD+ygKfw0bVqBMHmgf744ptiK0xClBJ5OXHuBFp1mzywbcmQokm+PNm7htNLv6fCwqeH4Yyah+wzWpOUUZhqaBC1LZPcoRNgxGQYUurjfOzPBMWXzpgsLXA85HZ3rXOn4LN79pPhd84ophZgp0xYDz108weE1M+L1GGR8EjrNihpN3/ModGRN9JlsqbLnN0Pm6I84BGXb2ZzJXV9jmuHm+qYjbq5ePGepxJ47kyLwHfNb2lIuj4AyD9OCgjG7EH5iXU35myEuUzxwJ3fP5ka0LVw7PRY8GFj8/OWrrjCsm52DrWrw8Tq5H43a5qpGV9Zn9a369mTm/hIs7m8Nwsr0fr6b5txg2/7g2DDPLOy55eTIK6aJQ506EMexFZmmGX772XkjLZJ1xEpFVRp0L/F5xgxQTp9T4Td2UZvGOn8aeL1OT7OY+GoJELG0FCqC+EuUpLPMs6JHhPuuQvojQklfU/PgQH6f1HL/v8+7UsLuFpjSbC14ie/9E2UYw14ZZRJQPUd3yLXWUpTUN1blwSG/cwe554MA3brKU7Lt2FrpwrPxzFhJ8Ci1ocWfPStERzMHzJiYlBOJl2JvEPnbKR3OlVKFuEKi+QWMPi+MgnH/oObUSe/LakuWSJHyp74VuXUpKbcKpCQ7JMPfaGY2O2EFNTqW1tF5RFRilQXUPfh2K6pMhdU+NT1ELtBq7q8IbK/Tez5M/1uKDNruxtKEnep/yOtw5tEVVoHZM6qkvvPXFm9jSOtx5SIwVi7Z2v2LTMTXK7THEkAwwwtrxmxN9xJwHXzhE/u8tO8USGkvOGn8y/MgBlZOg5Ir3CvCbE4NfFvXmsASoHkQzbJ+FNHu9K77Qg5Ii3tObHBKeKbzm8ouJ1vrV1CdERSRChrOFo5X4rHRBR0Go/ojLDu5okRhDJrwq4LWwFt/O99hzVJdYa5JJTi9PVM4SHxPEfR1TtNbmtpSuz0SQvJ3PoGZfxq2TBU/loS8uO8P8J7HWGSRci0FtIy47cXrK2q2cCp+S9cXBOZQfyyWAjK+hCSsrVZUaMooD1Ef7NVQvhIl62aXI370C2iIBv8J6L/UJ0ZAQ8HdUH4CpmDqITTe8Nr755M5beR8ZuLjPmb+p+gCAuO+t1SdE5+5kqe7La18dvesLv+2/N1cfAD+SfeVQOzn6lv4pPO+B7xL39f6H//Af9PF/V0f6CtpAY0wAAAAASUVORK5CYII=;" vertex="1" parent="1">
          <mxGeometry x="409.21999999999997" y="49.760000000000005" width="63.82" height="74.25" as="geometry" />
        </mxCell>
        <mxCell id="4Pfv7Ixq8JbsdDbuthkN-5" value="" style="shape=image;verticalLabelPosition=bottom;labelBackgroundColor=#ffffff;verticalAlign=top;aspect=fixed;imageAspect=0;image=https://avatars.githubusercontent.com/u/39950598?s=280&amp;v=4;" vertex="1" parent="1">
          <mxGeometry x="331.87" y="433.5" width="81" height="81" as="geometry" />
        </mxCell>
        <mxCell id="TU_B897q-poDSYaNwjlW-6" value="HashiCorp&#xa;Vault" style="shape=image;verticalLabelPosition=bottom;labelBackgroundColor=#ffffff;verticalAlign=top;aspect=fixed;imageAspect=0;image=data:image/png,iVBORw0KGgoAAAANSUhEUgAAAOMAAADeCAMAAAD4tEcNAAAAdVBMVEX///8AAAAPDw/6+vqVlZVlZWV0dHShoaGnp6ft7e2Pj4+bm5uysrJBQUF7e3vy8vKIiIi9vb3Hx8c5OTldXV1tbW3v7++CgoK4uLgeHh4nJycwMDDR0dFSUlLb29vn5+dJSUlNTU0LCwsrKyvNzc08PDwXFxfQMPf1AAAIbklEQVR4nN2d6VrjMAxFBd1ogTIsZRsoZYC+/yMOkE1Z2vjKluXk/MzXKVZvmjj2GZVmJ6fj5mRGbydj543oznoMytwRjT7I7xiJZtajUGX2U+LIg/yNkWhjPQ5FNlmJtLQeiCLLvEaaW49EjXlRIt1bD0WN+7JGWluPRYl1VSJdWQ9GiStWIz1Yj0aFB17iSIOsxUj0x3o8Cvypl0gT6wEpMGnUSCvrEQVn1SxxhEG2YiSaWo8pMNN2iUTWgwpMV4l0bj2qoJx31jiuILtLpIX1uAKyOFDjmII8VCKdWY8sGGcHaxxPkIdLpAvrsQXi4kiNYwnyWIkjCfJojESn1uMLwOnxEunReoABeOypkZ6sR+jNU1+JdG09RG+ue2ukZ+sxevLcXyLdWA/SkxuHGumv9Si9+OtS4sCDdIqR6NZ6nB7cupVIn9YD9eDTsUa6tB6pmEvXEunFeqhiXpxrpJ31WIXs3EukrfVghWyBGunVerQiXpESBxokFOMwDbM7rMRBBgnGGMowu10tps3v9nyxaDoW79OzlfdNeYaWGMQwe84+2SWvMt+H4Eu5u8z32no+DLzBNQYwzL46TopyrlXNM6qvkVeUG8LxD5Jtcu7zQ2w3qdhd2VeHvPZ5BTH6B8k3OYs1Tf7++SG+wuRhXkhi9FcFt+334t5TcQLzLW2PifKSRHiqgrX3yg7VdsxW7ZfJP9Y5yfBUBWvOgXaN9yTEzzDj52p+Aat92vlUistQ4qfzujWG4GeYcc2pcA3YoeIiyrMVfzsa1hiCn2FWnT/lTYF5QWU91Tktvl01rTEEPzHpo3yfr/JYuYhdTXTK1cLJP+lf6tCN3PFUBbOFwJc9O5R95JN5+2XyXYi2NYbga5g9rafr5ubC3WrVfHL7ftlcHKJnjMMwzDqtsYhBxsAzxiEYZgesMQTrEnrxL9HLMLt9XE7ub+pXmNV2MtnWv+av1/eT5aPw6fGgNYYgLbA6i9hO2G0+I5mwioqnK5nmFaJEuWFWfVHKItkmb3lLqfa2JafMEWsMQVgi3yYrFjvYPL14VuRLTYIVnTAlSoPk7kFe0Bd/2+dW2QIFKlCM0iD5I11+m61NuvIFSH4In5SHKlFomHV8TLVPPbu2/uOH4KfyHmsMQTSXrD3TZYdqs66H9keB5lj7gDwRGWbcPsi/j7WNpQDfx15rDGHf//da8C2WYhrAVs+K6ypfqwOvq2xpNgCeQZaPhizIUsyr9rfRuXHQGIWGWbHwz55+i6VePs8pXobeo1ysMQTZQ/rmJ6OX2hbY/uL7WvS2aL1scgNLCA7yH8aHqEhNPvoHDZKeYeZojSGkZpi5WmMIqRlmztYYwlf/320zW2+ak6TL9bp1edms0b35r/4BCxBsnGU3sE9+45n/TvGuuBGwl6yvAtYYAnpxPy1nrNXNsJyVV9O2MpEJ4OvvdEqEg2S718Uhtr9UbopVS4fA1pxSjETvUIl8v6y457NDxcotf95y7hvyrlUiKCZ17D/WNu199h9h3cgdSBXs20fO94v4IdeTFZP/MKAga/+yo8aOvXLXdQDFGDFVkAsz+eBrW9pyrwOV/zCQxQh+Mckfm2oPtfnL+NOD43anSDdyB5mOtOvhBRXbAewp0NE/wOU/DCTI6ipaneLlYkd1Ca1kD8dpv3KMmGH2mt0X7vkEKX8i4g/Jd9nLto6PqDJrDAHThGZnj2eN0/tjdXHR/N59v2zhfF8SWmMI1s3opNYYgnUzOrE1hmDbjG7dP8AA2PYw87DGEDyb0W3Op3L9Vy7/YXgFmW/rSAWuSDF6GWblgqGsEYGP/IchF5OYSyM64711I3fEzeg8Pyg/+Q9DGmTtwi/4L10RYxSrgl3PyAC+8h+ISY1xSxSqgl3OvDsB5D8MUY1+15zYJQpVQfaNgqe9QeQ/DFGN1RwAd37ilyg1zPJbHD4DCGaNIchq/J6TT6eS/yRrUWLkroImMUa2sG1KjNqMLqD8hxGvGV1fyzg94jWjC2yNIcRqRtffMk6PWM3ogltjCHGa0YWW/zDiGGYK1hhCjGZ0bi3j9IgRpHGMMVRBDfkPQ18VVJH/MLSb0bm3jNNDuxmdmjWGoNuMbmdd3i+6ra9UdSN3NJvRaVpjCJpBJhKjZjM6XWsMQS/IZGLU+7lTbWsMQevnTtWtMQSdnzvVt8YQdIJMKkadINOKUed3ayPIfxjhVcE41hhCeFUwivyHEVoVTC/G8KpgNGsMIezPncazxhDCtr6Kqhu5EzLINGMMG2SiMYZsRhfZGkMIVqN1IUcI1YwuujWGEKhG6zKOEubnTg2sMYQgNVoX0UMIMclIN3InQI3WJfTiH2TyMQYI0roAB3wNMzNrDMGjsfFJ2JZxevgZZobWGIKkGV1B2JZxevgEOZAYfVRBS/kPQ64Kmsp/GNJmdOFbxukhNczMrTEEmSpoLf9hyAyzBKwxBEkzOp2WcXpIDLMkrDEE3DDbWQ8ZBg9ycDGizeg0W8bpgYpJCelG7mCqYCryH4a8q+CAQFTBdOQ/DERMSkw3csddFUxJ/sNwD3KwMbobZqlZYwiuhlly1hiCm2EWo2WcHm6GWYLWGIKLYZaiNYbgYpglaY0h9DfmiNUyTo/+IAcfY79hlqo1htBnmCVrjSEc780Vs2WcHseDHEWMx1XBhOU/jCM1Wg8tGIdVwaTlP4zxx3hYFUxc/sMYf4yHDLMBWGMI44+xO8iRxdgZpPWQgtNWBQch/2E0m9ENxRpDaBpmg7HGEOqG2XCsMYS6YTYgawyBN6OzbRmnBzfMBmWNIVSG2bCsMYSb8cdYNaOzbxmnR6EKDkz+w8ia0aXQMk6PzDAboDWG8KMK7qwHocyPmDRQ3cid14FaYwjb8cdIFH/Z+D/kAI+Lu/jcXgAAAABJRU5ErkJggg==;" vertex="1" parent="1">
          <mxGeometry x="200" y="56.129999999999995" width="71.58" height="70" as="geometry" />
        </mxCell>
        <mxCell id="JbEN0UMO3swwpD4w212Q-30" value="" style="html=1;dashed=0;whitespace=wrap;fillColor=#2875E2;strokeColor=#ffffff;points=[[0.005,0.63,0],[0.1,0.2,0],[0.9,0.2,0],[0.5,0,0],[0.995,0.63,0],[0.72,0.99,0],[0.5,1,0],[0.28,0.99,0]];shape=mxgraph.kubernetes.icon;prIcon=secret" vertex="1" parent="1">
          <mxGeometry x="319.63" y="251" width="50" height="48" as="geometry" />
        </mxCell>
        <mxCell id="TU_B897q-poDSYaNwjlW-7" value="" style="edgeStyle=orthogonalEdgeStyle;rounded=0;orthogonalLoop=1;jettySize=auto;html=1;endArrow=none;" edge="1" parent="1" target="JbEN0UMO3swwpD4w212Q-30">
          <mxGeometry relative="1" as="geometry">
            <mxPoint x="340" y="160" as="targetPoint" />
            <mxPoint x="250" y="334" as="sourcePoint" />
            <Array as="points">
              <mxPoint x="340" y="334" />
            </Array>
          </mxGeometry>
        </mxCell>
        <mxCell id="TU_B897q-poDSYaNwjlW-9" style="edgeStyle=orthogonalEdgeStyle;rounded=0;orthogonalLoop=1;jettySize=auto;html=1;exitX=0.81;exitY=0.135;exitDx=0;exitDy=0;exitPerimeter=0;" edge="1" parent="1" source="JbEN0UMO3swwpD4w212Q-21">
          <mxGeometry relative="1" as="geometry">
            <mxPoint x="240" y="160" as="targetPoint" />
            <Array as="points">
              <mxPoint x="241" y="180" />
              <mxPoint x="240" y="180" />
            </Array>
          </mxGeometry>
        </mxCell>
        <mxCell id="TU_B897q-poDSYaNwjlW-10" value="" style="sketch=0;html=1;dashed=0;whitespace=wrap;fillColor=#2875E2;strokeColor=#ffffff;points=[[0.005,0.63,0],[0.1,0.2,0],[0.9,0.2,0],[0.5,0,0],[0.995,0.63,0],[0.72,0.99,0],[0.5,1,0],[0.28,0.99,0]];shape=mxgraph.kubernetes.icon;prIcon=sa" vertex="1" parent="1">
          <mxGeometry x="219.99999999999997" y="250" width="50" height="48" as="geometry" />
        </mxCell>
        <mxCell id="Ln8kPvlx6nNb-7jzCwNh-1" value="" style="outlineConnect=0;dashed=0;verticalLabelPosition=bottom;verticalAlign=top;align=center;html=1;shape=mxgraph.aws3.iam;fillColor=#759C3E;gradientColor=none;" vertex="1" parent="1">
          <mxGeometry x="-4.18" y="249" width="30" height="50" as="geometry" />
        </mxCell>
        <mxCell id="Ln8kPvlx6nNb-7jzCwNh-2" value="AWS&lt;br&gt;S3 bucket" style="sketch=0;outlineConnect=0;fontColor=#232F3E;gradientColor=none;fillColor=#3F8624;strokeColor=none;dashed=0;verticalLabelPosition=bottom;verticalAlign=top;align=center;html=1;fontSize=12;fontStyle=0;aspect=fixed;pointerEvents=1;shape=mxgraph.aws4.bucket;" vertex="1" parent="1">
          <mxGeometry x="-21" y="56.13" width="63.64" height="66.18" as="geometry" />
        </mxCell>
        <mxCell id="Ln8kPvlx6nNb-7jzCwNh-5" value="Google Cloud&#xa;Certificate Manager" style="shape=image;verticalLabelPosition=bottom;labelBackgroundColor=default;verticalAlign=top;aspect=fixed;imageAspect=0;image=data:image/svg+xml,PHN2ZyB4bWxucz0iaHR0cDovL3d3dy53My5vcmcvMjAwMC9zdmciIGZpbGw9Im5vbmUiIHZpZXdCb3g9IjAgMCAyNCAyNCIgaGVpZ2h0PSI4MDBweCIgd2lkdGg9IjgwMHB4Ij4mI3hhOyYjeGE7PGcgZmlsbD0iIzQyODVmNCI+JiN4YTsmI3hhOzxwYXRoIGZpbGwtcnVsZT0iZXZlbm9kZCIgZD0ibTIwLjYyNSA4LjM0ODc2djEwLjI4ODE0YzAgMS4xMDM0LS44ODQ3IDEuOTg4MS0xLjk4OCAxLjk4ODFoLTEwLjI4ODIzYy0xLjA5MzQzIDAtMS45ODgwNS0uODg0Ny0xLjk4ODA1LTEuOTg4MWgxMi4yNzYyOHYtMTIuMjc2MmMxLjEwMzMgMCAxLjk4OC44OTQ2MyAxLjk4OCAxLjk4ODA2eiIgY2xpcC1ydWxlPSJldmVub2RkIi8+JiN4YTsmI3hhOzxwYXRoIGZpbGwtcnVsZT0iZXZlbm9kZCIgZD0ibTE1LjY1MTIgMy4zNzVoLTEwLjI4ODE0Yy0xLjA5MzQ0IDAtMS45ODgwNi44OTQ2Mi0xLjk4ODA2IDEuOTg4MDZ2MTAuMjg4MTRjMCAxLjEwMzQuODk0NjIgMS45ODgxIDEuOTg4MDYgMS45ODgxaDEwLjI4ODE0YzEuMTAzNCAwIDEuOTg4MS0uODg0NyAxLjk4ODEtMS45ODgxdi0xMC4yODgxNGMwLTEuMDkzNDQtLjg4NDctMS45ODgwNi0xLjk4ODEtMS45ODgwNnptMCAxMi4yNzYyaC0xMC4yODgxNHYtMTAuMjg4MTRoMTAuMjg4MTR6IiBjbGlwLXJ1bGU9ImV2ZW5vZGQiLz4mI3hhOyYjeGE7PHBhdGggZD0ibTEzLjA3NSA4LjQ4MjYyYy0uMDY1Ny0uMzQ3NjMtLjIwNjctLjY1NzY5LS4zOTQ2LS45Mzk1Ni0uMjcyNC0uNDEzNC0uNjU3Ni0uNzQyMjUtMS4xMDg2LS45Mzk1Ni0uMzI4OC0uMTQwOTMtLjY4NTgtLjIyNTQ5LTEuMDcxLS4yMjU0OS0uMzc1OCAwLS43MzI4Ni4wODQ1Ni0xLjA2MTY5LjIyNTQ5LS40NTA5Ny4xOTczMS0uODM2MTcuNTI2MTYtMS4xMDg2My45Mzk1Ni0uMjkxMjUuNDEzNDEtLjQ1MDk2LjkyMDc3LS40NTA5NiAxLjQ2NTcyIDAgLjE3ODUxLjAxODc5LjM1NzAzLjA1NjM3LjUyNjE1IDAgLjAwOTQgMCAuMDE4NzkuMDA5MzkuMDM3NTguMDE4NzkuMDg0NTYuMDM3NTguMTc4NTIuMDY1NzcuMjYzMDguMDc1MTYuMjI1NTEuMTc4NTEuNDMyMjEuMzEwMDQuNjIwMTEuMTIyMTMuMTc4NS4yNjMwNi4zNDc2LjQzMjE3LjQ5OHYzLjMwNzJsMS43NDc1NC0xLjY0NDIgMS43NTY4IDEuNjQ0MnYtMy4zMDcyYy4zMzgzLS4zMDA3LjU5MTktLjY4NTkuNzQyMy0xLjExODExLjAyODEtLjA4NDU2LjA0NjktLjE3ODUyLjA2NTctLjI2MzA4LjAwOTQtLjAxODc5LjAwOTQtLjAyODE4LjAwOTQtLjAzNzU4LjAzNzYtLjE2OTEyLjA1NjQtLjM0NzY0LjA1NjQtLjUyNjE1IDAtLjE3ODUyLS4wMTg4LS4zNTcwNC0uMDU2NC0uNTI2MTZ6bS0xLjM1MjkuNTI2MTZjMCAuNjY3MDgtLjU0NDkgMS4yMTIwMi0xLjIyMTMgMS4yMTIwMi0uNjY3MSAwLTEuMjEyMDEtLjU0NDk0LTEuMjEyMDEtMS4yMTIwMiAwLS4xODc5Mi4wMzc1OC0uMzY2NDMuMTIyMTMtLjUyNjE2LjE4NzktLjQxMzQuNjEwNjgtLjY5NTI3IDEuMDg5ODgtLjY5NTI3LjQ4ODUgMCAuOTExMy4yODE4NyAxLjA5OTIuNjk1MjcuMDg0NS4xNTk3My4xMjIxLjMzODI0LjEyMjEuNTI2MTZ6Ii8+JiN4YTsmI3hhOzwvZz4mI3hhOyYjeGE7PC9zdmc+;" vertex="1" parent="1">
          <mxGeometry x="-160" y="55.13" width="80" height="80" as="geometry" />
        </mxCell>
        <mxCell id="Ln8kPvlx6nNb-7jzCwNh-6" value="" style="sketch=0;html=1;dashed=0;whitespace=wrap;fillColor=#2875E2;strokeColor=#ffffff;points=[[0.005,0.63,0],[0.1,0.2,0],[0.9,0.2,0],[0.5,0,0],[0.995,0.63,0],[0.72,0.99,0],[0.5,1,0],[0.28,0.99,0]];shape=mxgraph.kubernetes.icon;prIcon=sa" vertex="1" parent="1">
          <mxGeometry x="-145.00000000000003" y="252" width="50" height="48" as="geometry" />
        </mxCell>
      </root>
    </mxGraphModel>
  </diagram>
</mxfile>
